<svg width="26" height="26" viewBox="0 0 26 26" fill="none" xmlns="http://www.w3.org/2000/svg">
<path d="M13 5.81208V3.25M13 5.81208C11.4996 5.87026 10.0807 6.50949 9.04302 7.59467C8.00534 8.67986 7.43023 10.126 7.43923 11.6274V13.5774C7.43923 16.1623 5.41665 16.8079 5.41665 18.1003C5.41665 18.7428 5.41665 19.5 5.99948 19.5H20.0005C20.5833 19.5 20.5833 18.7428 20.5833 18.1003C20.5833 16.8079 18.5607 16.1623 18.5607 13.5774V11.6274C18.5697 10.126 17.9946 8.67986 16.9569 7.59467C15.9193 6.50949 14.5003 5.87026 13 5.81208ZM16.5392 19.5C16.4374 20.423 16.2077 21.1683 15.5166 21.788C14.825 22.408 13.9288 22.7509 13 22.7509C12.0711 22.7509 11.175 22.408 10.4834 21.788C9.79223 21.1683 9.1444 20.423 9.04256 19.5H16.5392Z" stroke="#555555" stroke-width="2" stroke-linecap="round" stroke-linejoin="round"/>
<circle cx="3" cy="3" r="3" transform="matrix(-1 0 0 1 11 5)" fill="#EA4335"/>
</svg>
