<svg width="34" height="34" viewBox="0 0 34 34" fill="none" xmlns="http://www.w3.org/2000/svg">
<path d="M17 15.5834C19.4225 15.5834 21.25 13.7559 21.25 11.3334C21.25 8.91087 19.4225 7.08337 17 7.08337C14.5775 7.08337 12.75 8.91087 12.75 11.3334C12.75 13.7559 14.5775 15.5834 17 15.5834ZM17 9.91671C17.85 9.91671 18.4167 10.4834 18.4167 11.3334C18.4167 12.1834 17.85 12.75 17 12.75C16.15 12.75 15.5834 12.1834 15.5834 11.3334C15.5834 10.4834 16.15 9.91671 17 9.91671ZM18.4167 17H15.5834C11.6734 17 8.50004 20.1734 8.50004 24.0834V24.7917C8.50004 25.9675 9.44921 26.9167 10.625 26.9167H23.375C24.5509 26.9167 25.5 25.9675 25.5 24.7917V24.0834C25.5 20.1734 22.3267 17 18.4167 17ZM11.3334 24.0834C11.3334 21.7459 13.2459 19.8334 15.5834 19.8334H18.4167C20.7542 19.8334 22.6667 21.7459 22.6667 24.0834H11.3334ZM9.20837 15.5834C9.87421 15.5834 10.4834 15.4134 11.0075 15.1159C10.4134 14.1699 10.05 13.0975 9.94661 11.9851C9.84325 10.8728 10.0029 9.75181 10.4125 8.71254C10.0442 8.58504 9.63337 8.50004 9.20837 8.50004C7.16837 8.50004 5.66671 10.0017 5.66671 12.0417C5.66671 14.0817 7.16837 15.5834 9.20837 15.5834ZM8.65587 17H7.79171C5.05754 17 2.83337 19.2242 2.83337 21.9584V23.375C2.83337 23.7717 3.14504 24.0834 3.54171 24.0834H5.66671C5.66671 21.3067 6.81421 18.7992 8.65587 17ZM24.7917 15.5834C26.8317 15.5834 28.3334 14.0817 28.3334 12.0417C28.3334 10.0017 26.8317 8.50004 24.7917 8.50004C24.3525 8.50004 23.9559 8.58504 23.5875 8.71254C23.9972 9.75181 24.1568 10.8728 24.0535 11.9851C23.9501 13.0975 23.5867 14.1699 22.9925 15.1159C23.5167 15.4134 24.1117 15.5834 24.7917 15.5834ZM26.2084 17H25.3442C26.2908 17.9208 27.0431 19.0222 27.5565 20.2388C28.0699 21.4555 28.3341 22.7628 28.3334 24.0834H30.4584C30.855 24.0834 31.1667 23.7717 31.1667 23.375V21.9584C31.1667 19.2242 28.9425 17 26.2084 17Z" fill="#B0B0B0"/>
</svg>
