<svg width="151" height="43" viewBox="0 0 151 43" fill="none" xmlns="http://www.w3.org/2000/svg">
<line x1="53.9886" y1="26.5" x2="72.0114" y2="26.5" stroke="url(#paint0_linear_905_2498)" stroke-width="4" stroke-linecap="round"/>
<path d="M0.46875 18V12.9141L2.32031 12.6211V5.37891L0.46875 5.08594V0H11.0273C12.3164 0 13.5234 0.0585938 14.6484 0.175781C15.7734 0.285156 16.7578 0.527344 17.6016 0.902344C18.4531 1.26953 19.1172 1.83203 19.5938 2.58984C20.0703 3.33984 20.3086 4.35547 20.3086 5.63672C20.3086 6.58203 20.1562 7.35547 19.8516 7.95703C19.5547 8.55078 19.1367 9.03125 18.5977 9.39844C18.0664 9.76562 17.4492 10.0898 16.7461 10.3711C17.3477 11.3398 17.9648 12.2305 18.5977 13.043C19.2305 13.8477 19.8008 14.5195 20.3086 15.0586V18H12.8555C11.6523 15.8828 10.7773 13.7383 10.2305 11.5664H9.82031V18H0.46875ZM9.82031 8.10938C10.4219 8.10938 10.9453 8.06641 11.3906 7.98047C11.8438 7.88672 12.1953 7.69531 12.4453 7.40625C12.6953 7.10938 12.8203 6.66016 12.8203 6.05859C12.8203 5.45703 12.6953 5.01172 12.4453 4.72266C12.1953 4.42578 11.8438 4.23047 11.3906 4.13672C10.9453 4.03516 10.4219 3.98438 9.82031 3.98438V8.10938ZM21.9609 18V13.3242L23.3672 13.0547V6.41016L21.9609 6.14062V1.5H36.4453V7.5H34.8398C34.3164 7.10938 33.6758 6.79688 32.918 6.5625C32.1602 6.32812 31.3281 6.21094 30.4219 6.21094V8.75391L33.668 8.0625V11.4023L30.4219 10.6992V13.2891C31.3359 13.2891 32.1719 13.1758 32.9297 12.9492C33.6953 12.7227 34.332 12.4062 34.8398 12H36.4453V18H21.9609ZM38.1094 18V13.3242L39.5156 13.0547V6.38672L38.1094 6.11719V1.5H46.5703L52.207 10.3945V6.41016L50.8008 6.11719V1.5H57.8438V6.11719L56.4375 6.38672V13.0547L57.8438 13.3242V18H49.3828L43.7461 9.33984V13.0547L45.1641 13.3125V18H38.1094ZM62.4023 18V13.3242L63.8086 13.0547V5.85938C63.4258 5.85938 63.0391 5.92187 62.6484 6.04688C62.2656 6.17188 61.9453 6.35547 61.6875 6.59766C61.4297 6.83984 61.3008 7.14062 61.3008 7.5H59.3438V1.5H75.3281V7.5H73.3711C73.3711 7.14062 73.2383 6.83984 72.9727 6.59766C72.7148 6.35547 72.3945 6.17188 72.0117 6.04688C71.6289 5.92187 71.2461 5.85938 70.8633 5.85938V13.0547L72.2695 13.3242V18H62.4023ZM75.6562 18V12.5625L77.0156 12.293L80.2617 1.5H89.3555L92.625 12.293L93.9727 12.5625V18H87.7031L87.1172 15.2227H82.5117L81.9258 18H75.6562ZM83.2266 11.5195H86.4023L84.8086 5.03906L83.2266 11.5195ZM95.4375 18V13.3242L96.8438 13.0547V6.38672L95.4375 6.11719V1.5H105.305V6.11719L103.887 6.38672V13.5C104.574 13.5 105.164 13.3438 105.656 13.0312C106.156 12.7188 106.566 12.375 106.887 12H108.844V18H95.4375Z" fill="#0D31B3"/>
<path d="M66.9961 34V28.9141L68.8242 28.6211V21.4023L66.9961 21.1094V16H78.0586V21.1094L76.3242 21.4023V23.6172H82.3242V21.4023L80.5898 21.1094V16H91.6523V21.1094L89.8242 21.4023V28.6211L91.6523 28.9141V34H80.5898V28.9141L82.3242 28.6211V26.2656H76.3242V28.6211L78.0586 28.9141V34H66.9961ZM103.781 34.2109C100.883 34.2109 98.6328 33.4961 97.0312 32.0664C95.4297 30.6289 94.6289 28.4492 94.6289 25.5273V22.3867L93.2227 22.1172V17.5H102.375V22.1172L100.969 22.3867V24.3438C100.969 24.5078 100.969 24.6719 100.969 24.8359C100.977 25 100.98 25.1562 100.98 25.3047V25.5508C100.98 26.6055 101.18 27.4414 101.578 28.0586C101.984 28.6758 102.719 28.9844 103.781 28.9844C104.852 28.9844 105.59 28.6758 105.996 28.0586C106.41 27.4336 106.617 26.5898 106.617 25.5273V25.2578C106.617 25.1172 106.613 24.9688 106.605 24.8125C106.605 24.6484 106.605 24.4844 106.605 24.3203V22.3867L105.199 22.1172V17.5H113.332V22.1172L111.914 22.3867C111.906 22.5039 111.902 22.6211 111.902 22.7383C111.902 22.8477 111.902 22.957 111.902 23.0664V25.5273C111.902 28.2773 111.227 30.4141 109.875 31.9375C108.523 33.4531 106.492 34.2109 103.781 34.2109ZM114.75 34V29.3242L116.156 29.0547V21.9883L114.75 21.7188V17.5H128.977C130 17.7422 130.832 18.1445 131.473 18.707C132.113 19.2695 132.434 20.1367 132.434 21.3086C132.434 21.7148 132.391 22.1562 132.305 22.6328C132.227 23.1094 132.074 23.5625 131.848 23.9922C131.621 24.4141 131.297 24.7695 130.875 25.0586C130.453 25.3398 129.902 25.4961 129.223 25.5273C130.004 25.5664 130.723 25.707 131.379 25.9492C132.035 26.1836 132.562 26.5508 132.961 27.0508C133.359 27.5508 133.559 28.2188 133.559 29.0547C133.559 30.2734 133.316 31.2461 132.832 31.9727C132.355 32.6914 131.668 33.2109 130.77 33.5312C129.871 33.8438 128.793 34 127.535 34H114.75ZM123.211 24.3672H124.242C124.969 24.3672 125.527 24.2656 125.918 24.0625C126.309 23.8516 126.504 23.375 126.504 22.6328C126.504 21.9297 126.301 21.4883 125.895 21.3086C125.488 21.1289 124.938 21.0391 124.242 21.0391H123.211V24.3672ZM123.211 29.9922H124.242C124.969 29.9922 125.527 29.8867 125.918 29.6758C126.309 29.4648 126.504 28.9883 126.504 28.2461C126.504 27.543 126.301 27.1055 125.895 26.9336C125.488 26.7539 124.938 26.6641 124.242 26.6641H123.211V29.9922Z" fill="#CCD8FF"/>
<line x1="51.7831" y1="26.1799" x2="55.1799" y2="22.2169" stroke="#0D31B3" stroke-width="4" stroke-linecap="round"/>
<line x1="2" y1="-2" x2="7.21954" y2="-2" transform="matrix(-0.650791 -0.759257 -0.759257 0.650791 55 33)" stroke="#0D31B3" stroke-width="4" stroke-linecap="round"/>
<line x1="45" y1="26" x2="21" y2="26" stroke="url(#paint1_linear_905_2498)" stroke-width="4" stroke-linecap="round"/>
<line x1="2" y1="-2" x2="7.21954" y2="-2" transform="matrix(-0.650791 -0.759257 -0.759257 0.650791 46 29)" stroke="#0D31B3" stroke-width="4" stroke-linecap="round"/>
<line x1="42.7831" y1="30.1799" x2="46.1799" y2="26.2169" stroke="#0D31B3" stroke-width="4" stroke-linecap="round"/>
<defs>
<linearGradient id="paint0_linear_905_2498" x1="51.9886" y1="29" x2="74.0114" y2="29" gradientUnits="userSpaceOnUse">
<stop stop-color="white"/>
<stop offset="0.509615" stop-color="#CBCEFF"/>
</linearGradient>
<linearGradient id="paint1_linear_905_2498" x1="19" y1="23.5" x2="47" y2="23.5" gradientUnits="userSpaceOnUse">
<stop offset="0.432692" stop-color="#CBCEFF"/>
<stop offset="0.971154" stop-color="white"/>
</linearGradient>
</defs>
</svg>
