<svg width="225" height="59" viewBox="0 0 225 59" fill="none" xmlns="http://www.w3.org/2000/svg">
<line x1="90" y1="43" x2="126" y2="43" stroke="url(#paint0_linear_857_2356)" stroke-width="4" stroke-linecap="round"/>
<path d="M0.78125 30V21.5234L3.86719 21.0352V8.96484L0.78125 8.47656V0H18.3789C20.5273 0 22.5391 0.0976562 24.4141 0.292969C26.2891 0.47526 27.9297 0.878906 29.3359 1.50391C30.7552 2.11589 31.862 3.05339 32.6562 4.31641C33.4505 5.56641 33.8477 7.25911 33.8477 9.39453C33.8477 10.9701 33.5938 12.2591 33.0859 13.2617C32.5911 14.2513 31.8945 15.0521 30.9961 15.6641C30.1107 16.276 29.082 16.8164 27.9102 17.2852C28.9128 18.8997 29.9414 20.3841 30.9961 21.7383C32.0508 23.0794 33.0013 24.1992 33.8477 25.0977V30H21.4258C19.4206 26.4714 17.9622 22.8971 17.0508 19.2773H16.3672V30H0.78125ZM16.3672 13.5156C17.3698 13.5156 18.2422 13.444 18.9844 13.3008C19.7396 13.1445 20.3255 12.8255 20.7422 12.3438C21.1589 11.849 21.3672 11.1003 21.3672 10.0977C21.3672 9.09505 21.1589 8.35286 20.7422 7.87109C20.3255 7.3763 19.7396 7.05078 18.9844 6.89453C18.2422 6.72526 17.3698 6.64062 16.3672 6.64062V13.5156ZM36.6016 30V22.207L38.9453 21.7578V10.6836L36.6016 10.2344V2.5H60.7422V12.5H58.0664C57.194 11.849 56.1263 11.3281 54.8633 10.9375C53.6003 10.5469 52.2135 10.3516 50.7031 10.3516V14.5898L56.1133 13.4375V19.0039L50.7031 17.832V22.1484C52.2266 22.1484 53.6198 21.9596 54.8828 21.582C56.1589 21.2044 57.2201 20.6771 58.0664 20H60.7422V30H36.6016ZM63.5156 30V22.207L65.8594 21.7578V10.6445L63.5156 10.1953V2.5H77.6172L87.0117 17.3242V10.6836L84.668 10.1953V2.5H96.4062V10.1953L94.0625 10.6445V21.7578L96.4062 22.207V30H82.3047L72.9102 15.5664V21.7578L75.2734 22.1875V30H63.5156ZM104.004 30V22.207L106.348 21.7578V9.76562C105.71 9.76562 105.065 9.86979 104.414 10.0781C103.776 10.2865 103.242 10.5924 102.812 10.9961C102.383 11.3997 102.168 11.901 102.168 12.5H98.9062V2.5H125.547V12.5H122.285C122.285 11.901 122.064 11.3997 121.621 10.9961C121.191 10.5924 120.658 10.2865 120.02 10.0781C119.382 9.86979 118.743 9.76562 118.105 9.76562V21.7578L120.449 22.207V30H104.004ZM126.094 30V20.9375L128.359 20.4883L133.77 2.5H148.926L154.375 20.4883L156.621 20.9375V30H146.172L145.195 25.3711H137.52L136.543 30H126.094ZM138.711 19.1992H144.004L141.348 8.39844L138.711 19.1992ZM159.062 30V22.207L161.406 21.7578V10.6445L159.062 10.1953V2.5H175.508V10.1953L173.145 10.6445V22.5C174.29 22.5 175.273 22.2396 176.094 21.7188C176.927 21.1979 177.611 20.625 178.145 20H181.406V30H159.062Z" fill="white"/>
<path d="M111.66 58V49.5234L114.707 49.0352V37.0039L111.66 36.5156V28H130.098V36.5156L127.207 37.0039V40.6953H137.207V37.0039L134.316 36.5156V28H152.754V36.5156L149.707 37.0039V49.0352L152.754 49.5234V58H134.316V49.5234L137.207 49.0352V45.1094H127.207V49.0352L130.098 49.5234V58H111.66ZM172.969 58.3516C168.138 58.3516 164.388 57.1602 161.719 54.7773C159.049 52.3815 157.715 48.7487 157.715 43.8789V38.6445L155.371 38.1953V30.5H170.625V38.1953L168.281 38.6445V41.9062C168.281 42.1797 168.281 42.4531 168.281 42.7266C168.294 43 168.301 43.2604 168.301 43.5078V43.918C168.301 45.6758 168.633 47.069 169.297 48.0977C169.974 49.1263 171.198 49.6406 172.969 49.6406C174.753 49.6406 175.983 49.1263 176.66 48.0977C177.35 47.056 177.695 45.6497 177.695 43.8789V43.4297C177.695 43.1953 177.689 42.9479 177.676 42.6875C177.676 42.4141 177.676 42.1406 177.676 41.8672V38.6445L175.332 38.1953V30.5H188.887V38.1953L186.523 38.6445C186.51 38.8398 186.504 39.0352 186.504 39.2305C186.504 39.4128 186.504 39.5951 186.504 39.7773V43.8789C186.504 48.4622 185.378 52.0234 183.125 54.5625C180.872 57.0885 177.487 58.3516 172.969 58.3516ZM191.25 58V50.207L193.594 49.7578V37.9805L191.25 37.5312V30.5H214.961C216.667 30.9036 218.053 31.5742 219.121 32.5117C220.189 33.4492 220.723 34.8945 220.723 36.8477C220.723 37.5247 220.651 38.2604 220.508 39.0547C220.378 39.849 220.124 40.6042 219.746 41.3203C219.368 42.0234 218.828 42.6159 218.125 43.0977C217.422 43.5664 216.504 43.8268 215.371 43.8789C216.673 43.944 217.871 44.1784 218.965 44.582C220.059 44.9727 220.938 45.5846 221.602 46.418C222.266 47.2513 222.598 48.3646 222.598 49.7578C222.598 51.7891 222.194 53.4102 221.387 54.6211C220.592 55.819 219.447 56.6849 217.949 57.2188C216.452 57.7396 214.655 58 212.559 58H191.25ZM205.352 41.9453H207.07C208.281 41.9453 209.212 41.776 209.863 41.4375C210.514 41.0859 210.84 40.2917 210.84 39.0547C210.84 37.8828 210.501 37.1471 209.824 36.8477C209.147 36.5482 208.229 36.3984 207.07 36.3984H205.352V41.9453ZM205.352 51.3203H207.07C208.281 51.3203 209.212 51.1445 209.863 50.793C210.514 50.4414 210.84 49.6471 210.84 48.4102C210.84 47.2383 210.501 46.5091 209.824 46.2227C209.147 45.9232 208.229 45.7734 207.07 45.7734H205.352V51.3203Z" fill="#CCD8FF"/>
<line x1="88.7831" y1="43.1799" x2="92.1799" y2="39.2169" stroke="white" stroke-width="4" stroke-linecap="round"/>
<line x1="2" y1="-2" x2="7.21954" y2="-2" transform="matrix(-0.650791 -0.759257 -0.759257 0.650791 92 50)" stroke="white" stroke-width="4" stroke-linecap="round"/>
<line x1="82" y1="43" x2="58" y2="43" stroke="url(#paint1_linear_857_2356)" stroke-width="4" stroke-linecap="round"/>
<line x1="2" y1="-2" x2="7.21954" y2="-2" transform="matrix(-0.650791 -0.759257 -0.759257 0.650791 83 46)" stroke="white" stroke-width="4" stroke-linecap="round"/>
<line x1="79.7831" y1="47.1799" x2="83.1799" y2="43.2169" stroke="white" stroke-width="4" stroke-linecap="round"/>
<defs>
<linearGradient id="paint0_linear_857_2356" x1="88" y1="45.5" x2="128" y2="45.5" gradientUnits="userSpaceOnUse">
<stop stop-color="white"/>
<stop offset="0.509615" stop-color="#CBCEFF"/>
</linearGradient>
<linearGradient id="paint1_linear_857_2356" x1="56" y1="40.5" x2="84" y2="40.5" gradientUnits="userSpaceOnUse">
<stop offset="0.432692" stop-color="#CBCEFF"/>
<stop offset="0.971154" stop-color="white"/>
</linearGradient>
</defs>
</svg>
