<svg width="39" height="39" viewBox="0 0 39 39" fill="none" xmlns="http://www.w3.org/2000/svg">
<path d="M25.3442 11.2171L7.52044 13.6528C6.81785 13.7502 6.16237 14.0618 5.64337 14.5453C5.12437 15.0288 4.76711 15.6605 4.6203 16.3545C4.47349 17.0484 4.54427 17.7708 4.82299 18.423C5.10172 19.0752 5.57482 19.6257 6.17779 19.9992L11.9373 23.5386C12.0731 23.6265 12.1901 23.7405 12.2814 23.8741C12.3727 24.0077 12.4365 24.1582 12.469 24.3167L13.6737 30.9686C13.7769 31.5338 14.0198 32.0642 14.3801 32.5117C14.7405 32.9592 15.207 33.3095 15.7372 33.5308C16.2674 33.7522 16.8446 33.8375 17.4161 33.7791C17.9877 33.7206 18.5356 33.5203 19.0101 33.1962C19.4514 32.8882 19.8182 32.4853 20.0836 32.0172L28.8293 16.2968C29.1385 15.7377 29.2863 15.1037 29.2562 14.4655C29.2261 13.8274 29.0193 13.2101 28.6589 12.6826C28.2984 12.1551 27.7985 11.7382 27.2149 11.4782C26.6312 11.2183 25.9869 11.1257 25.3537 11.2106L25.3442 11.2171ZM26.8145 15.1818L18.0689 30.9022C17.9517 31.1052 17.7752 31.2675 17.5632 31.3673C17.3511 31.4672 17.1136 31.4998 16.8825 31.4608C16.6514 31.4218 16.4377 31.3131 16.2701 31.1493C16.1025 30.9854 15.9891 30.7742 15.9449 30.544L14.7307 23.8987C14.7136 23.8106 14.6913 23.7235 14.664 23.638L21.2019 19.1703C21.4536 18.9983 21.6266 18.7334 21.683 18.4339C21.7393 18.1343 21.6744 17.8246 21.5024 17.573C21.3304 17.3213 21.0655 17.1483 20.766 17.0919C20.4664 17.0356 20.1567 17.1005 19.9051 17.2725L13.3671 21.7402C13.2974 21.6837 13.2244 21.6313 13.1485 21.5833L7.39855 18.0375C7.20015 17.9127 7.04464 17.7302 6.95288 17.5146C6.86111 17.2989 6.83748 17.0603 6.88514 16.8308C6.93281 16.6014 7.0495 16.3919 7.21956 16.2307C7.38962 16.0694 7.60493 15.9639 7.83661 15.9285L25.6603 13.4928C25.8702 13.4662 26.0833 13.498 26.2762 13.5848C26.4691 13.6716 26.6343 13.8099 26.7537 13.9845C26.873 14.1592 26.9419 14.3634 26.9526 14.5746C26.9633 14.7859 26.9156 14.996 26.8145 15.1818Z" fill="#B0B0B0"/>
</svg>
